<svg width="67" height="60" viewBox="0 0 67 60" fill="none" xmlns="http://www.w3.org/2000/svg">
<path d="M11.936 53.3617V30.8936M36.1594 8.42554H11.936V30.8936M36.1594 8.42554H60.3829V36.2819M36.1594 8.42554V36.2819M36.1594 53.3617V36.2819M60.3829 53.3617V36.2819M11.936 30.8936H47.7867M36.1594 36.2819H60.3829" stroke="#2E2212" stroke-width="3"/>
<g filter="url(#filter0_f_35_5056)">
<g clip-path="url(#clip0_35_5056)">
<path d="M58.749 1.12708C60.0164 5.57691 60.9802 10.1148 61.6274 14.696C60.3577 10.246 59.3985 5.70841 58.749 1.12708Z" fill="#62805A"/>
<path d="M57.7933 11.467C58.945 8.88455 60.3809 6.43193 62.0786 4.16991C60.9292 6.75252 59.4887 9.20484 57.7933 11.467Z" fill="#62805A"/>
<path d="M55.658 8.77901C58.2633 7.77066 60.9803 7.05818 63.7475 6.66281C61.142 7.67345 58.423 8.38119 55.658 8.77901Z" fill="#62805A"/>
<path d="M57.4102 5.90479C59.7299 7.01805 61.9131 8.41281 63.8925 10.0592C61.5703 8.94805 59.3897 7.54885 57.4102 5.90479Z" fill="#62805A"/>
</g>
</g>
<g filter="url(#filter1_f_35_5056)">
<ellipse cx="60.2059" cy="7.99452" rx="1.80952" ry="1.80952" transform="rotate(10.5646 60.2059 7.99452)" fill="#62805A"/>
</g>
<g filter="url(#filter2_f_35_5056)">
<g clip-path="url(#clip1_35_5056)">
<path d="M14.1812 17.2429C12.9943 22.0647 11.432 26.6401 9.50583 30.92C10.6903 26.0957 12.2573 21.5254 14.1812 17.2429Z" fill="#DB4699"/>
<path d="M6.94084 26.4622C9.99129 24.4879 13.3077 22.9043 16.824 21.7617C13.7762 23.7381 10.4543 25.3175 6.94084 26.4622Z" fill="#DB4699"/>
<path d="M6.02965 21.5671C9.86275 22.6324 13.6449 24.1313 17.2873 26.0359C13.4525 24.9731 9.67097 23.467 6.02965 21.5671Z" fill="#DB4699"/>
<path d="M10.002 19.7708C12.1385 23.0207 13.9291 26.4764 15.3102 30.0464C13.1693 26.7969 11.3847 23.3383 10.002 19.7708Z" fill="#DB4699"/>
</g>
</g>
<g filter="url(#filter3_f_35_5056)">
<ellipse cx="12.1181" cy="24.546" rx="2.8178" ry="2.30697" transform="rotate(42.8864 12.1181 24.546)" fill="#DB4699"/>
</g>
<g filter="url(#filter4_f_35_5056)">
<g clip-path="url(#clip2_35_5056)">
<path d="M33.3447 49.6173C35.1516 51.8293 36.7154 54.1287 38.0176 56.4933C36.2088 54.2816 34.6489 51.9818 33.3447 49.6173Z" fill="#86B978"/>
<path d="M35.0816 56.1323C35.228 54.0475 35.6459 51.9754 36.3357 49.9639C36.1912 52.0482 35.7694 54.1213 35.0816 56.1323Z" fill="#86B978"/>
<path d="M32.5161 54.8596C34.3305 53.4654 36.3266 52.2444 38.461 51.2278C36.6472 52.6237 34.648 53.842 32.5161 54.8596Z" fill="#86B978"/>
<path d="M33.063 52.4126C35.2956 52.5533 37.5032 52.9242 39.622 53.5229C37.388 53.3843 35.1811 53.0097 33.063 52.4126Z" fill="#86B978"/>
</g>
</g>
<g filter="url(#filter5_f_35_5056)">
<ellipse cx="35.99" cy="53.0896" rx="1.62071" ry="1.3269" transform="rotate(-10.1854 35.99 53.0896)" fill="#86B978"/>
</g>
<g filter="url(#filter6_f_35_5056)">
<g clip-path="url(#clip3_35_5056)">
<path d="M49.3589 31.88C51.8609 34.943 54.0264 38.1271 55.8296 41.4016C53.3249 38.3389 51.1649 35.1542 49.3589 31.88Z" fill="#D37BE1"/>
<path d="M51.7641 40.9016C51.9668 38.0147 52.5455 35.1454 53.5007 32.3599C53.3006 35.2461 52.7166 38.1169 51.7641 40.9016Z" fill="#D37BE1"/>
<path d="M48.2109 39.1394C50.7233 37.2087 53.4875 35.5179 56.4431 34.1103C53.9315 36.0432 51.163 37.7302 48.2109 39.1394Z" fill="#D37BE1"/>
<path d="M48.9683 35.7507C52.0598 35.9456 55.1169 36.4592 58.0508 37.2882C54.9573 37.0963 51.9014 36.5775 48.9683 35.7507Z" fill="#D37BE1"/>
</g>
</g>
<g filter="url(#filter7_f_35_5056)">
<ellipse cx="53.0211" cy="36.6881" rx="2.24428" ry="1.83742" transform="rotate(-10.1854 53.0211 36.6881)" fill="#D37BE1"/>
</g>
<defs>
<filter id="filter0_f_35_5056" x="54.7886" y="0.454712" width="10.1763" height="14.8718" filterUnits="userSpaceOnUse" color-interpolation-filters="sRGB">
<feFlood flood-opacity="0" result="BackgroundImageFix"/>
<feBlend mode="normal" in="SourceGraphic" in2="BackgroundImageFix" result="shape"/>
<feGaussianBlur stdDeviation="0.25" result="effect1_foregroundBlur_35_5056"/>
</filter>
<filter id="filter1_f_35_5056" x="54.396" y="2.18469" width="11.6196" height="11.6196" filterUnits="userSpaceOnUse" color-interpolation-filters="sRGB">
<feFlood flood-opacity="0" result="BackgroundImageFix"/>
<feBlend mode="normal" in="SourceGraphic" in2="BackgroundImageFix" result="shape"/>
<feGaussianBlur stdDeviation="2" result="effect1_foregroundBlur_35_5056"/>
</filter>
<filter id="filter2_f_35_5056" x="1.59229" y="12.5612" width="20.3438" height="23.1661" filterUnits="userSpaceOnUse" color-interpolation-filters="sRGB">
<feFlood flood-opacity="0" result="BackgroundImageFix"/>
<feBlend mode="normal" in="SourceGraphic" in2="BackgroundImageFix" result="shape"/>
<feGaussianBlur stdDeviation="0.25" result="effect1_foregroundBlur_35_5056"/>
</filter>
<filter id="filter3_f_35_5056" x="5.52441" y="17.9896" width="13.1875" height="13.1127" filterUnits="userSpaceOnUse" color-interpolation-filters="sRGB">
<feFlood flood-opacity="0" result="BackgroundImageFix"/>
<feBlend mode="normal" in="SourceGraphic" in2="BackgroundImageFix" result="shape"/>
<feGaussianBlur stdDeviation="2" result="effect1_foregroundBlur_35_5056"/>
</filter>
<filter id="filter4_f_35_5056" x="30.0439" y="46.9943" width="11.2778" height="12.2384" filterUnits="userSpaceOnUse" color-interpolation-filters="sRGB">
<feFlood flood-opacity="0" result="BackgroundImageFix"/>
<feBlend mode="normal" in="SourceGraphic" in2="BackgroundImageFix" result="shape"/>
<feGaussianBlur stdDeviation="0.25" result="effect1_foregroundBlur_35_5056"/>
</filter>
<filter id="filter5_f_35_5056" x="30.3774" y="47.7522" width="11.2251" height="10.6747" filterUnits="userSpaceOnUse" color-interpolation-filters="sRGB">
<feFlood flood-opacity="0" result="BackgroundImageFix"/>
<feBlend mode="normal" in="SourceGraphic" in2="BackgroundImageFix" result="shape"/>
<feGaussianBlur stdDeviation="2" result="effect1_foregroundBlur_35_5056"/>
</filter>
<filter id="filter6_f_35_5056" x="44.98" y="28.4402" width="15.2319" height="16.5624" filterUnits="userSpaceOnUse" color-interpolation-filters="sRGB">
<feFlood flood-opacity="0" result="BackgroundImageFix"/>
<feBlend mode="normal" in="SourceGraphic" in2="BackgroundImageFix" result="shape"/>
<feGaussianBlur stdDeviation="0.25" result="effect1_foregroundBlur_35_5056"/>
</filter>
<filter id="filter7_f_35_5056" x="46.7881" y="30.8362" width="12.4658" height="11.7037" filterUnits="userSpaceOnUse" color-interpolation-filters="sRGB">
<feFlood flood-opacity="0" result="BackgroundImageFix"/>
<feBlend mode="normal" in="SourceGraphic" in2="BackgroundImageFix" result="shape"/>
<feGaussianBlur stdDeviation="2" result="effect1_foregroundBlur_35_5056"/>
</filter>
<clipPath id="clip0_35_5056">
<rect width="8.29998" height="13.3453" fill="white" transform="translate(56.1836 0.954712) rotate(3.84485)"/>
</clipPath>
<clipPath id="clip1_35_5056">
<rect width="12.4469" height="17.322" fill="white" transform="matrix(0.787056 0.617884 -0.55116 0.835663 11.6396 13.0612)"/>
</clipPath>
<clipPath id="clip2_35_5056">
<rect width="7.15909" height="9.96308" fill="white" transform="matrix(0.966804 -0.257931 0.336876 0.942669 30.5439 49.3408)"/>
</clipPath>
<clipPath id="clip3_35_5056">
<rect width="9.91353" height="13.7964" fill="white" transform="matrix(0.966804 -0.257931 0.336876 0.942669 45.48 31.4972)"/>
</clipPath>
</defs>
</svg>
