<svg width="70" height="70" viewBox="0 0 70 70" fill="none" xmlns="http://www.w3.org/2000/svg">
<path d="M48.4 23.7001C47.6 22.9001 46.6 22.3001 45.6 21.8001C44.6 21.4001 43.4 21.1001 42.3 21.1001C41.2 21.1001 40 21.3001 39 21.8001C38 22.2001 37 22.9001 36.2 23.7001L34.5 25.4001L32.8 23.7001C31.2 22.1001 29 21.2001 26.7 21.2001C24.4 21.2001 22.2 22.1001 20.6 23.7001C19 25.3001 18.1 27.5001 18.1 29.8001C18.1 32.1001 19 34.3001 20.6 35.9001L22.3 37.6001L34.5 49.8001L46.7 37.6001L48.4 35.9001C49.2 35.1001 49.8 34.1001 50.3 33.1001C50.7 32.1001 51 30.9001 51 29.8001C51 28.7001 50.8 27.5001 50.3 26.5001C49.8 25.5001 49.2 24.5001 48.4 23.7001Z" stroke="#A99DCF" stroke-width="4" stroke-linecap="round" stroke-linejoin="round"/>
</svg>
